<svg width="136" height="110" viewBox="0 0 136 110" fill="none" xmlns="http://www.w3.org/2000/svg">
<path d="M79.4112 51.3061C79.3615 50.7592 79.1403 50.3342 78.7475 50.0309C78.3597 49.7227 77.8054 49.5685 77.0845 49.5685C76.6072 49.5685 76.2095 49.6307 75.8913 49.755C75.5732 49.8793 75.3345 50.0508 75.1754 50.2695C75.0163 50.4833 74.9343 50.7294 74.9293 51.0078C74.9194 51.2365 74.9641 51.4379 75.0636 51.6119C75.168 51.7859 75.3171 51.94 75.511 52.0742C75.7099 52.2035 75.9485 52.3178 76.2269 52.4173C76.5053 52.5167 76.8185 52.6037 77.1665 52.6783L78.479 52.9766C79.2347 53.1406 79.9009 53.3594 80.4776 53.6328C81.0593 53.9062 81.5465 54.2319 81.9393 54.6097C82.337 54.9876 82.6378 55.4226 82.8416 55.9148C83.0455 56.407 83.1499 56.9588 83.1548 57.5703C83.1499 58.5348 82.9063 59.3626 82.424 60.0536C81.9418 60.7447 81.2482 61.2741 80.3434 61.642C79.4435 62.0099 78.3572 62.1939 77.0845 62.1939C75.8068 62.1939 74.6932 62.0025 73.7436 61.6197C72.794 61.2369 72.0558 60.6552 71.5288 59.8746C71.0018 59.0941 70.7308 58.1072 70.7159 56.9141H74.2507C74.2805 57.4062 74.4123 57.8164 74.646 58.1445C74.8796 58.4727 75.2003 58.7212 75.608 58.8903C76.0206 59.0593 76.4979 59.1438 77.0398 59.1438C77.5369 59.1438 77.9595 59.0767 78.3075 58.9425C78.6605 58.8082 78.9315 58.6218 79.1204 58.3832C79.3093 58.1445 79.4063 57.8711 79.4112 57.5629C79.4063 57.2745 79.3168 57.0284 79.1428 56.8246C78.9688 56.6158 78.7003 56.4368 78.3374 56.2876C77.9794 56.1335 77.522 55.9918 76.9652 55.8626L75.3693 55.4897C74.0469 55.1864 73.0053 54.6967 72.2447 54.0206C71.484 53.3395 71.1062 52.4197 71.1112 51.2614C71.1062 50.3168 71.3597 49.489 71.8718 48.7781C72.3839 48.0671 73.0923 47.5128 73.9972 47.1151C74.902 46.7173 75.9336 46.5185 77.092 46.5185C78.2752 46.5185 79.3018 46.7198 80.1719 47.1225C81.0469 47.5202 81.7255 48.0795 82.2077 48.8004C82.69 49.5213 82.9361 50.3565 82.946 51.3061H79.4112ZM85.4392 62V46.7273H95.8646V49.7251H89.1306V52.8572H95.2009V55.8626H89.1306V62H85.4392ZM97.6437 49.7251V46.7273H110.552V49.7251H105.921V62H102.282V49.7251H97.6437Z" fill="url(#paint0_linear_73_4)"/>
<path d="M79.4112 51.3061L78.4153 51.3966L78.498 52.3061H79.4112V51.3061ZM78.7475 50.0309L78.1252 50.8138L78.1364 50.8224L78.7475 50.0309ZM75.8913 49.755L75.5275 48.8235L75.5275 48.8235L75.8913 49.755ZM75.1754 50.2695L75.9777 50.8666L75.9842 50.8577L75.1754 50.2695ZM74.9293 51.0078L75.9284 51.0513L75.9289 51.0385L75.9292 51.0257L74.9293 51.0078ZM75.0636 51.6119L74.1953 52.108L74.2006 52.1172L74.2061 52.1264L75.0636 51.6119ZM75.511 52.0742L74.9418 52.8964L74.9538 52.9047L74.966 52.9127L75.511 52.0742ZM76.2269 52.4173L76.5633 51.4755L76.5633 51.4755L76.2269 52.4173ZM77.1665 52.6783L77.3882 51.7031L77.3761 51.7005L77.1665 52.6783ZM78.479 52.9766L78.2574 53.9517L78.2669 53.9538L78.479 52.9766ZM80.4776 53.6328L80.0492 54.5364L80.0522 54.5378L80.4776 53.6328ZM81.9393 54.6097L81.246 55.3304L81.2505 55.3347L81.9393 54.6097ZM82.8416 55.9148L81.9177 56.2974L81.9177 56.2974L82.8416 55.9148ZM83.1548 57.5703L84.1549 57.5755L84.1548 57.5622L83.1548 57.5703ZM82.424 60.0536L81.6039 59.4813L81.6039 59.4813L82.424 60.0536ZM80.3434 61.642L79.9667 60.7157L79.965 60.7164L80.3434 61.642ZM73.7436 61.6197L74.1175 60.6922L73.7436 61.6197ZM70.7159 56.9141V55.9141H69.7033L69.716 56.9266L70.7159 56.9141ZM74.2507 56.9141L75.2489 56.8536L75.1919 55.9141H74.2507V56.9141ZM74.646 58.1445L73.8314 58.7246L73.8314 58.7246L74.646 58.1445ZM75.608 58.8903L75.2249 59.814L75.2289 59.8156L75.608 58.8903ZM78.3075 58.9425L77.9521 58.0078L77.9477 58.0095L78.3075 58.9425ZM79.1204 58.3832L78.3363 57.7625L78.3363 57.7625L79.1204 58.3832ZM79.4112 57.5629L80.4111 57.579L80.4114 57.5623L80.4111 57.5456L79.4112 57.5629ZM79.1428 56.8246L78.3745 57.4648L78.3822 57.4738L79.1428 56.8246ZM78.3374 56.2876L77.9419 57.2061L77.9495 57.2094L77.9572 57.2126L78.3374 56.2876ZM76.9652 55.8626L76.7377 56.8363L76.7391 56.8367L76.9652 55.8626ZM75.3693 55.4897L75.5968 54.5159L75.5928 54.515L75.3693 55.4897ZM72.2447 54.0206L71.5776 54.7656L71.5803 54.768L72.2447 54.0206ZM71.1112 51.2614L72.1112 51.2657L72.1111 51.2561L71.1112 51.2614ZM71.8718 48.7781L71.0604 48.1936L71.0604 48.1936L71.8718 48.7781ZM73.9972 47.1151L74.3996 48.0305L74.3996 48.0305L73.9972 47.1151ZM80.1719 47.1225L79.7518 48.03L79.7581 48.0329L80.1719 47.1225ZM82.2077 48.8004L83.0389 48.2444L83.0389 48.2444L82.2077 48.8004ZM82.946 51.3061V52.3061H83.9565L83.946 51.2956L82.946 51.3061ZM80.4071 51.2156C80.3352 50.4245 79.9964 49.7318 79.3587 49.2394L78.1364 50.8224C78.2842 50.9366 78.3878 51.094 78.4153 51.3966L80.4071 51.2156ZM79.3698 49.2481C78.7403 48.7477 77.9317 48.5685 77.0845 48.5685V50.5685C77.679 50.5685 77.9792 50.6976 78.1253 50.8137L79.3698 49.2481ZM77.0845 48.5685C76.5286 48.5685 75.9978 48.6398 75.5275 48.8235L76.2552 50.6864C76.4212 50.6216 76.6859 50.5685 77.0845 50.5685V48.5685ZM75.5275 48.8235C75.0778 48.9992 74.6644 49.272 74.3667 49.6814L75.9842 50.8577C76.0047 50.8295 76.0685 50.7593 76.2552 50.6864L75.5275 48.8235ZM74.3732 49.6725C74.0835 50.0618 73.938 50.5126 73.9295 50.99L75.9292 51.0257C75.9306 50.9462 75.9492 50.9048 75.9777 50.8665L74.3732 49.6725ZM73.9303 50.9644C73.9133 51.3542 73.9895 51.7477 74.1953 52.108L75.9318 51.1157C75.9333 51.1184 75.9329 51.119 75.9316 51.1134C75.9302 51.1069 75.9268 51.0876 75.9284 51.0513L73.9303 50.9644ZM74.2061 52.1264C74.3945 52.4405 74.6498 52.6943 74.9418 52.8964L76.0802 51.252C75.9844 51.1857 75.9414 51.1313 75.9211 51.0974L74.2061 52.1264ZM74.966 52.9127C75.2439 53.0933 75.556 53.2395 75.8906 53.359L76.5633 51.4755C76.341 51.3962 76.1759 51.3137 76.056 51.2358L74.966 52.9127ZM75.8906 53.359C76.2178 53.4758 76.5743 53.5741 76.957 53.6561L77.3761 51.7005C77.0627 51.6333 76.7929 51.5575 76.5633 51.4755L75.8906 53.359ZM76.9449 53.6534L78.2574 53.9517L78.7007 52.0014L77.3882 51.7031L76.9449 53.6534ZM78.2669 53.9538C78.963 54.1049 79.5542 54.3017 80.0492 54.5364L80.906 52.7292C80.2476 52.417 79.5064 52.1763 78.6912 51.9993L78.2669 53.9538ZM80.0522 54.5378C80.5524 54.7729 80.9445 55.0404 81.246 55.3304L82.6326 53.8891C82.1485 53.4234 81.5662 53.0396 80.9031 52.7278L80.0522 54.5378ZM81.2505 55.3347C81.5499 55.6191 81.7691 55.9384 81.9177 56.2974L83.7655 55.5321C83.5065 54.9067 83.1241 54.356 82.628 53.8847L81.2505 55.3347ZM81.9177 56.2974C82.0656 56.6546 82.1508 57.0767 82.1549 57.5784L84.1548 57.5622C84.1489 56.8409 84.0253 56.1594 83.7655 55.5321L81.9177 56.2974ZM82.1548 57.5652C82.1508 58.357 81.9538 58.9799 81.6039 59.4813L83.2441 60.6259C83.8587 59.7452 84.149 58.7126 84.1548 57.5755L82.1548 57.5652ZM81.6039 59.4813C81.2489 59.9901 80.7218 60.4087 79.9667 60.7157L80.72 62.5684C81.7747 62.1396 82.6346 61.4993 83.2441 60.6259L81.6039 59.4813ZM79.965 60.7164C79.2161 61.0226 78.2656 61.1939 77.0845 61.1939V63.1939C78.4489 63.1939 79.671 62.9973 80.7218 62.5677L79.965 60.7164ZM77.0845 61.1939C75.9043 61.1939 74.9228 61.0168 74.1175 60.6922L73.3697 62.5471C74.4636 62.9881 75.7093 63.1939 77.0845 63.1939V61.1939ZM74.1175 60.6922C73.336 60.3771 72.7632 59.9159 72.3576 59.3151L70.7 60.4342C71.3483 61.3944 72.2521 62.0966 73.3697 62.5471L74.1175 60.6922ZM72.3576 59.3151C71.9656 58.7345 71.729 57.9515 71.7158 56.9016L69.716 56.9266C69.7327 58.263 70.038 59.4537 70.7 60.4342L72.3576 59.3151ZM70.7159 57.9141H74.2507V55.9141H70.7159V57.9141ZM73.2525 56.9746C73.2912 57.6117 73.467 58.2129 73.8314 58.7246L75.4605 57.5645C75.3576 57.4199 75.2699 57.2008 75.2489 56.8536L73.2525 56.9746ZM73.8314 58.7246C74.1841 59.2199 74.6612 59.5803 75.2249 59.814L75.991 57.9665C75.7394 57.8622 75.5751 57.7254 75.4605 57.5645L73.8314 58.7246ZM75.2289 59.8156C75.7847 60.0433 76.3951 60.1438 77.0398 60.1438V58.1438C76.6006 58.1438 76.2565 58.0753 75.987 57.9649L75.2289 59.8156ZM77.0398 60.1438C77.6214 60.1438 78.1734 60.066 78.6674 59.8755L77.9477 58.0095C77.7457 58.0874 77.4525 58.1438 77.0398 58.1438V60.1438ZM78.663 59.8772C79.1442 59.6942 79.5795 59.4143 79.9044 59.0039L78.3363 57.7625C78.2834 57.8293 78.1768 57.9223 77.9521 58.0078L78.663 59.8772ZM79.9044 59.0039C80.2317 58.5905 80.4026 58.1039 80.4111 57.579L78.4114 57.5467C78.4099 57.6383 78.3869 57.6985 78.3363 57.7625L79.9044 59.0039ZM80.4111 57.5456C80.4024 57.0442 80.2399 56.5696 79.9033 56.1753L78.3822 57.4738C78.3936 57.4872 78.4101 57.5048 78.4114 57.5801L80.4111 57.5456ZM79.911 56.1844C79.5968 55.8073 79.1687 55.5481 78.7175 55.3627L77.9572 57.2126C78.2319 57.3254 78.3407 57.4242 78.3745 57.4648L79.911 56.1844ZM78.7328 55.3692C78.3013 55.1834 77.782 55.0256 77.1913 54.8885L76.7391 56.8367C77.2621 56.9581 77.6575 57.0837 77.9419 57.2061L78.7328 55.3692ZM77.1927 54.8888L75.5968 54.5159L75.1418 56.4635L76.7377 56.8363L77.1927 54.8888ZM75.5928 54.515C74.3816 54.2372 73.5093 53.8067 72.909 53.2732L71.5803 54.768C72.5014 55.5867 73.7122 56.1356 75.1458 56.4644L75.5928 54.515ZM72.9118 53.2756C72.3939 52.8119 72.1072 52.1809 72.1111 51.2657L70.1112 51.2571C70.1051 52.6586 70.5741 53.867 71.5776 54.7656L72.9118 53.2756ZM72.1111 51.2561C72.1072 50.5056 72.3047 49.8881 72.6832 49.3625L71.0604 48.1936C70.4148 49.0899 70.1052 50.1279 70.1112 51.2666L72.1111 51.2561ZM72.6832 49.3625C73.0781 48.8143 73.6368 48.3658 74.3996 48.0305L73.5948 46.1996C72.5479 46.6598 71.6897 47.3199 71.0604 48.1936L72.6832 49.3625ZM74.3996 48.0305C75.1576 47.6973 76.0486 47.5185 77.092 47.5185V45.5185C75.8186 45.5185 74.6463 45.7374 73.5948 46.1996L74.3996 48.0305ZM77.092 47.5185C78.1633 47.5185 79.0405 47.7008 79.7518 48.03L80.5919 46.215C79.5631 45.7388 78.3871 45.5185 77.092 45.5185V47.5185ZM79.7581 48.0329C80.4826 48.3622 81.0087 48.8066 81.3766 49.3564L83.0389 48.2444C82.4422 47.3525 81.6111 46.6783 80.5857 46.2121L79.7581 48.0329ZM81.3766 49.3564C81.7405 49.9005 81.938 50.5422 81.9461 51.3166L83.946 51.2956C83.9342 50.1709 83.6394 49.1421 83.0389 48.2444L81.3766 49.3564ZM82.946 50.3061H79.4112V52.3061H82.946V50.3061ZM85.4392 62H84.4392V63H85.4392V62ZM85.4392 46.7273V45.7273H84.4392V46.7273H85.4392ZM95.8646 46.7273H96.8646V45.7273H95.8646V46.7273ZM95.8646 49.7251V50.7251H96.8646V49.7251H95.8646ZM89.1306 49.7251V48.7251H88.1306V49.7251H89.1306ZM89.1306 52.8572H88.1306V53.8572H89.1306V52.8572ZM95.2009 52.8572H96.2009V51.8572H95.2009V52.8572ZM95.2009 55.8626V56.8626H96.2009V55.8626H95.2009ZM89.1306 55.8626V54.8626H88.1306V55.8626H89.1306ZM89.1306 62V63H90.1306V62H89.1306ZM86.4392 62V46.7273H84.4392V62H86.4392ZM85.4392 47.7273H95.8646V45.7273H85.4392V47.7273ZM94.8646 46.7273V49.7251H96.8646V46.7273H94.8646ZM95.8646 48.7251H89.1306V50.7251H95.8646V48.7251ZM88.1306 49.7251V52.8572H90.1306V49.7251H88.1306ZM89.1306 53.8572H95.2009V51.8572H89.1306V53.8572ZM94.2009 52.8572V55.8626H96.2009V52.8572H94.2009ZM95.2009 54.8626H89.1306V56.8626H95.2009V54.8626ZM88.1306 55.8626V62H90.1306V55.8626H88.1306ZM89.1306 61H85.4392V63H89.1306V61ZM97.6437 49.7251H96.6437V50.7251H97.6437V49.7251ZM97.6437 46.7273V45.7273H96.6437V46.7273H97.6437ZM110.552 46.7273H111.552V45.7273H110.552V46.7273ZM110.552 49.7251V50.7251H111.552V49.7251H110.552ZM105.921 49.7251V48.7251H104.921V49.7251H105.921ZM105.921 62V63H106.921V62H105.921ZM102.282 62H101.282V63H102.282V62ZM102.282 49.7251H103.282V48.7251H102.282V49.7251ZM98.6437 49.7251V46.7273H96.6437V49.7251H98.6437ZM97.6437 47.7273H110.552V45.7273H97.6437V47.7273ZM109.552 46.7273V49.7251H111.552V46.7273H109.552ZM110.552 48.7251H105.921V50.7251H110.552V48.7251ZM104.921 49.7251V62H106.921V49.7251H104.921ZM105.921 61H102.282V63H105.921V61ZM103.282 62V49.7251H101.282V62H103.282ZM102.282 48.7251H97.6437V50.7251H102.282V48.7251Z" fill="#F1F1F1"/>
<mask id="path-3-outside-1_73_4" maskUnits="userSpaceOnUse" x="-1.41416" y="-1.96881" width="113.133" height="113.133" fill="black">
<rect fill="white" x="-1.41416" y="-1.96881" width="113.133" height="113.133"/>
<path d="M81.671 27.0686C76.2253 21.7149 69.3144 18.0963 61.8121 16.6704C54.3099 15.2444 46.5533 16.0751 39.5232 19.0575C32.4931 22.0399 26.5052 27.04 22.3168 33.4255C18.1284 39.8109 15.9276 47.295 15.9927 54.9313C16.0577 62.5676 18.3857 70.0131 22.6823 76.3263C26.9789 82.6395 33.0511 87.5368 40.131 90.399C47.2109 93.2611 54.9805 93.9596 62.4574 92.406C69.9342 90.8525 76.7825 87.1166 82.1362 81.671L54.6024 54.6024L81.671 27.0686Z"/>
</mask>
<path d="M81.671 27.0686C76.2253 21.7149 69.3144 18.0963 61.8121 16.6704C54.3099 15.2444 46.5533 16.0751 39.5232 19.0575C32.4931 22.0399 26.5052 27.04 22.3168 33.4255C18.1284 39.8109 15.9276 47.295 15.9927 54.9313C16.0577 62.5676 18.3857 70.0131 22.6823 76.3263C26.9789 82.6395 33.0511 87.5368 40.131 90.399C47.2109 93.2611 54.9805 93.9596 62.4574 92.406C69.9342 90.8525 76.7825 87.1166 82.1362 81.671L54.6024 54.6024L81.671 27.0686Z" fill="url(#paint1_linear_73_4)"/>
<path d="M81.671 27.0686C76.2253 21.7149 69.3144 18.0963 61.8121 16.6704C54.3099 15.2444 46.5533 16.0751 39.5232 19.0575C32.4931 22.0399 26.5052 27.04 22.3168 33.4255C18.1284 39.8109 15.9276 47.295 15.9927 54.9313C16.0577 62.5676 18.3857 70.0131 22.6823 76.3263C26.9789 82.6395 33.0511 87.5368 40.131 90.399C47.2109 93.2611 54.9805 93.9596 62.4574 92.406C69.9342 90.8525 76.7825 87.1166 82.1362 81.671L54.6024 54.6024L81.671 27.0686Z" stroke="#F1F1F1" stroke-width="2" mask="url(#path-3-outside-1_73_4)"/>
<defs>
<linearGradient id="paint0_linear_73_4" x1="103" y1="42" x2="103" y2="75" gradientUnits="userSpaceOnUse">
<stop offset="0.232292" stop-color="#FF681D"/>
<stop offset="1" stop-color="#FF3B3C"/>
</linearGradient>
<linearGradient id="paint1_linear_73_4" x1="54.0556" y1="14.6722" x2="54.0556" y2="93.4389" gradientUnits="userSpaceOnUse">
<stop stop-color="#FF681C"/>
<stop offset="1" stop-color="#FF4336"/>
</linearGradient>
</defs>
</svg>
