<?xml version="1.0" standalone="no"?>
<!DOCTYPE svg PUBLIC "-//W3C//DTD SVG 20010904//EN"
 "http://www.w3.org/TR/2001/REC-SVG-20010904/DTD/svg10.dtd">
<svg version="1.0" xmlns="http://www.w3.org/2000/svg"
 width="100.000000pt" height="100.000000pt" viewBox="0 0 100.000000 100.000000"
 preserveAspectRatio="xMidYMid meet">
<metadata>
Created by potrace 1.14, written by Peter Selinger 2001-2017
</metadata>
<g transform="translate(0.000000,100.000000) scale(0.100000,-0.100000)"
fill="#000000" stroke="none">
<path d="M368 975 c-124 -40 -232 -151 -263 -270 -21 -82 -21 -349 0 -430 30
-112 88 -180 203 -233 53 -25 66 -27 192 -27 126 0 139 2 192 27 79 37 121 71
157 126 49 78 61 143 61 349 0 162 -2 189 -21 240 -29 76 -94 139 -192 188
-72 36 -85 39 -180 42 -71 2 -116 -2 -149 -12z m223 -190 c23 -9 58 -27 76
-41 l33 -25 0 -95 0 -94 -23 15 c-13 8 -68 30 -123 49 -134 45 -182 71 -190
101 -10 38 3 73 34 89 36 20 138 20 193 1z m-233 -339 c26 -13 83 -35 127 -50
117 -38 145 -58 145 -101 0 -21 -8 -43 -19 -54 -27 -27 -95 -44 -141 -36 -53
9 -125 57 -146 97 -17 32 -33 168 -20 168 4 0 28 -11 54 -24z"/>
</g>
</svg>
