<?xml version="1.0" standalone="no"?>
<!DOCTYPE svg PUBLIC "-//W3C//DTD SVG 20010904//EN"
 "http://www.w3.org/TR/2001/REC-SVG-20010904/DTD/svg10.dtd">
<svg version="1.0" xmlns="http://www.w3.org/2000/svg"
 width="114.000000pt" height="114.000000pt" viewBox="0 0 114.000000 114.000000"
 preserveAspectRatio="xMidYMid meet">
<metadata>
Created by potrace 1.14, written by Peter Selinger 2001-2017
</metadata>
<g transform="translate(0.000000,114.000000) scale(0.100000,-0.100000)"
fill="#000000" stroke="none">
<path d="M564 1062 c-14 -35 -24 -44 -56 -54 -21 -6 -38 -14 -38 -18 0 -4 18
-13 40 -20 28 -9 39 -18 36 -27 -3 -8 -2 -12 3 -8 5 3 12 -8 16 -25 9 -40 20
-38 33 8 10 32 18 41 52 52 37 12 53 28 30 31 -47 6 -66 20 -82 62 l-16 42
-18 -43z"/>
<path d="M714 911 c-2 -2 -4 -84 -4 -182 0 -175 0 -177 23 -181 48 -8 56 0 59
60 l3 56 38 1 c20 1 37 -3 37 -9 0 -7 3 -8 8 -1 12 17 61 35 79 29 15 -5 15
-4 3 4 -12 9 -12 13 3 30 9 10 17 25 17 33 0 8 5 20 12 27 7 7 8 12 2 12 -5 0
-11 11 -12 26 -2 28 -29 69 -52 80 -17 8 -210 21 -216 15z m152 -67 c12 -3 26
-15 31 -27 11 -26 1 -73 -15 -69 -7 1 -12 -2 -12 -8 0 -5 -18 -10 -40 -10
l-40 0 0 60 c0 59 1 60 28 60 15 0 37 -3 48 -6z"/>
<path d="M194 849 c-63 -24 -126 -77 -149 -126 -25 -52 -23 -137 3 -189 21
-41 68 -78 132 -104 37 -16 41 -17 66 -19 8 0 13 -5 10 -10 -4 -5 2 -7 12 -4
10 2 45 -5 78 -17 32 -11 66 -22 74 -24 21 -4 58 -68 43 -73 -7 -3 -10 -10 -7
-16 7 -20 -33 -55 -76 -67 -43 -12 -109 -10 -116 2 -3 4 -12 8 -21 8 -26 0
-76 59 -71 83 4 20 0 22 -41 20 -25 0 -65 -2 -88 -2 -40 -1 -41 -2 -37 -28 6
-42 27 -107 39 -120 25 -30 34 -39 53 -54 11 -9 36 -23 55 -30 20 -7 34 -15
32 -18 -2 -3 9 -6 23 -7 132 -4 182 -4 212 2 19 3 43 7 53 7 9 1 17 4 17 8 0
4 13 12 29 19 16 6 37 20 47 31 9 10 21 16 26 13 4 -3 8 -2 7 3 -3 20 2 34 11
28 6 -4 7 1 3 11 -3 10 -2 15 3 12 5 -4 10 6 11 20 5 52 11 67 24 64 9 -2 9 1
-1 13 -15 18 -18 31 -23 77 -1 15 -8 30 -16 33 -7 3 -10 12 -7 21 3 8 2 13 -3
10 -4 -3 -17 4 -27 15 -30 33 -106 67 -199 89 -93 22 -165 53 -166 73 0 6 -2
21 -4 32 -6 31 3 52 32 70 27 18 138 31 128 16 -3 -5 5 -7 17 -3 14 3 19 1 14
-6 -4 -8 -2 -10 7 -6 16 6 57 -39 57 -62 0 -11 20 -14 85 -14 l85 0 -6 37
c-12 74 -65 140 -144 176 -65 30 -215 33 -286 6z"/>
<path d="M256 682 c-3 -5 1 -9 9 -9 8 0 12 4 9 9 -3 4 -7 8 -9 8 -2 0 -6 -4
-9 -8z"/>
<path d="M1000 651 c-5 -11 -10 -26 -10 -35 0 -8 -16 -20 -35 -27 -42 -16 -44
-25 -7 -34 20 -4 34 -17 46 -42 14 -29 20 -34 27 -22 5 8 9 21 9 30 0 10 16
23 38 32 l37 15 -36 16 c-33 14 -57 51 -51 79 4 14 -7 7 -18 -12z"/>
<path d="M226 618 c3 -5 10 -6 15 -3 13 9 11 12 -6 12 -8 0 -12 -4 -9 -9z"/>
<path d="M821 370 c-10 -34 -17 -41 -51 -51 -22 -7 -40 -15 -40 -19 0 -4 18
-12 40 -19 34 -10 41 -17 51 -51 7 -22 15 -40 19 -40 4 0 13 18 20 40 11 34
20 42 52 52 21 6 38 14 38 18 0 4 -17 12 -38 19 -35 12 -62 45 -62 78 0 27
-17 11 -29 -27z"/>
</g>
</svg>
