<svg width="29" height="32" viewBox="0 0 29 32" fill="none" xmlns="http://www.w3.org/2000/svg">
<path fill-rule="evenodd" clip-rule="evenodd" d="M17.922 7.4545C20.4807 10.6768 19.9427 15.3633 16.7204 17.922C13.4981 20.4807 8.81158 19.9428 6.25286 16.7204C3.69415 13.4981 4.23212 8.81162 7.45447 6.2529C10.6768 3.69419 15.3633 4.23216 17.922 7.4545ZM20.9385 19.3553C24.2951 15.2757 24.4725 9.27148 21.0545 4.9671C17.1221 0.0147002 9.91946 -0.812111 4.96706 3.12036C0.014663 7.05283 -0.812149 14.2554 3.12032 19.2078C6.49934 23.4632 12.2928 24.6726 16.9985 22.4339L23.6246 30.7786C24.4832 31.8599 26.0558 32.0404 27.1371 31.1818C28.2184 30.3232 28.3989 28.7506 27.5403 27.6693L20.9385 19.3553Z" fill="#D3D3D3"/>
</svg>
